<svg xmlns="http://www.w3.org/2000/svg" xmlns:xlink="http://www.w3.org/1999/xlink" width="83" height="46"><defs><path id="a" d="M40.376 13.913c.463 0 .864.17 1.202.509.337.34.506.742.506 1.208v28.133c0 .466-.169.869-.506 1.208-.338.34-.739.508-1.202.508H32.4c-.465 0-.865-.168-1.203-.508a1.654 1.654 0 01-.506-1.208V15.63c0-.466.168-.868.506-1.208.338-.34.738-.509 1.203-.509h7.975zM55.86.338c.463 0 .863.17 1.202.509.337.34.506.742.506 1.208v41.708c0 .466-.169.869-.506 1.208-.339.34-.739.508-1.202.508h-7.975c-.465 0-.865-.168-1.203-.508a1.654 1.654 0 01-.506-1.208V2.055c0-.466.168-.868.506-1.208.338-.34.738-.509 1.203-.509h7.975zM16.076.334c.464 0 .864.169 1.202.508.337.34.507.742.507 1.208v11.863h7.151c.464 0 .865.17 1.203.509.337.34.506.742.506 1.208v6.421c0 .468-.17.87-.506 1.208-.338.34-.739.509-1.203.509h-7.151v8.805c0 .976.21 1.727.632 2.257.422.53 1.118.795 2.09.795h4.416c.464 0 .865.17 1.203.508.337.34.506.743.506 1.208v6.422c0 .466-.17.869-.506 1.208-.338.34-.739.508-1.203.508h-5.367c-1.983 0-3.787-.286-5.41-.857-1.625-.573-3.007-1.4-4.146-2.48-1.14-1.082-2.025-2.394-2.658-3.942-.633-1.547-.95-3.296-.95-5.245v-9.187H1.71c-.465 0-.865-.169-1.203-.509A1.644 1.644 0 010 22.051V15.63c0-.466.168-.868.506-1.208.338-.34.738-.509 1.203-.509h4.683V2.05c0-.466.168-.868.507-1.208A1.635 1.635 0 018.1.334h7.975zm64.749 13.614c.464 0 .864.169 1.202.508.337.34.507.742.507 1.208v6.422c0 .466-.17.868-.507 1.208a1.639 1.639 0 01-1.202.508h-5.063c-.971 0-1.668.265-2.089.795-.422.53-.633 1.282-.633 2.257v16.893c0 .467-.17.868-.506 1.209a1.645 1.645 0 01-1.203.508h-7.975a1.64 1.64 0 01-1.202-.508 1.654 1.654 0 01-.506-1.209V26.473c0-1.95.317-3.699.95-5.245.632-1.548 1.518-2.861 2.658-3.942 1.139-1.08 2.52-1.908 4.145-2.48 1.624-.572 3.428-.858 5.411-.858h6.013zM78.546 41.42c.04 0 .074.015.104.044a.142.142 0 01.043.104v.198a.14.14 0 01-.043.103.14.14 0 01-.104.044h-1.02v3.193c0 .04-.014.075-.043.104a.145.145 0 01-.104.044h-.223a.143.143 0 01-.104-.044.145.145 0 01-.044-.104v-3.193h-1.02a.14.14 0 01-.103-.044.144.144 0 01-.043-.103v-.198c0-.04.015-.075.043-.104a.14.14 0 01.104-.044h2.557zm1.096 0c.061 0 .111.018.15.055a.407.407 0 01.089.12l1.102 2.141 1.1-2.14a.439.439 0 01.09-.121.209.209 0 01.15-.055h.208a.14.14 0 01.103.044.14.14 0 01.044.104v3.538c0 .04-.015.075-.044.104a.142.142 0 01-.103.044h-.224a.14.14 0 01-.103-.044.14.14 0 01-.044-.104V42.51l-.85 1.648c-.03.055-.06.098-.093.129s-.077.047-.13.047h-.208c-.055 0-.098-.016-.131-.047s-.064-.074-.093-.129l-.85-1.648v2.596c0 .04-.015.075-.043.104a.145.145 0 01-.104.044h-.224a.14.14 0 01-.103-.044.14.14 0 01-.044-.104v-3.538a.14.14 0 01.044-.104.137.137 0 01.103-.044h.208zM40.452.279c.464 0 .864.17 1.203.509.337.34.506.742.506 1.208v6.421c0 .467-.17.87-.506 1.208a1.64 1.64 0 01-1.203.509h-7.974a1.64 1.64 0 01-1.203-.509 1.65 1.65 0 01-.506-1.208V1.996c0-.466.168-.869.506-1.208.338-.34.738-.509 1.203-.509h7.974z"/></defs><g fill="none" fill-rule="evenodd"><path d="M0 0h75v45.479H0z"/><mask id="b" fill="#338FA8"><use xlink:href="#a"/></mask><use fill="#338FA8" xlink:href="#a"/><g fill="#338FA8" mask="url(#b)"><path d="M0 0h83v45.479H0z"/></g></g></svg>